<?xml version="1.0" encoding="UTF-8"?>
<svg xmlns="http://www.w3.org/2000/svg" xmlns:xlink="http://www.w3.org/1999/xlink" version="1.1" viewBox="0 0 1920 1050">
  <!-- Generator: Adobe Illustrator 29.1.0, SVG Export Plug-In . SVG Version: 2.1.0 Build 142)  -->
  <defs>
    <style>
      .st0 {
        fill: none;
      }

      .st1 {
        fill: url(#radial-gradient);
      }

      .st2 {
        isolation: isolate;
      }

      .st3 {
        mix-blend-mode: multiply;
      }

      .st4 {
        fill: #fff;
      }

      .st5 {
        fill: #929497;
      }
    </style>
    <radialGradient id="radial-gradient" cx="795.1" cy="950" fx="795.1" fy="950" r=".6" gradientTransform="translate(-1525605 1026523.4) scale(1920 -1080)" gradientUnits="userSpaceOnUse">
      <stop offset="0" stop-color="#4d484a"/>
      <stop offset=".8" stop-color="#292627"/>
      <stop offset="1" stop-color="#151213"/>
    </radialGradient>
  </defs>
  <g class="st2">
    <g id="Layer_1">
      <rect class="st0" y="0" width="1920" height="1050"/>
      <rect class="st4" y="0" width="1920" height="1050"/>
      <rect id="Rectangle_1" class="st1" y="0" width="1920" height="1080"/>
      <g class="st3">
        <path class="st0" d="M1346.6,920.7c-9.9-32.4-22.9-81.1,1.8-109.5l1.5-1.6.8-.8.8-.8,1.6-1.5,1.7-1.4.9-.7c.3-.2.6-.4.9-.6l1.8-1.3c23.8-14.9,53.6-16.8,80.7-11.8,57.6,10.3,108.2,44.5,166.1,53.2,69.7,9.6,143.7-12.8,185.6-71.8,38.7-50.8,70.5-141.4,11.7-189-4.6-3.5-9.5-6.7-14.5-9.5-25.3-14.3-53.3-23.5-81.6-30.2-71.1-16.3-144.5-18.8-217.2-18.3-32,.4-64,4.5-95.3,10.7-68.7,13.6-135,36.6-203.8,49.9-182.3,35.6-373.4,49.3-555.4,5.4-45.6-10.7-87.3-32.9-128.6-54.2-61.8-32-123.5-67.8-192.4-81.7-5.5-1.1-11-2-16.5-2.7-4.9-.6-9.9-1-14.8-1.3-36.1-1.9-72.7,5.9-103.2,25.8-9.8,6.2-19.1,13.3-27.7,21.2-5.5,4.8-10.5,10.2-14.7,16.1l-2.4,3.7-.6.9c-.2.3-.4.6-.5.9l-1.1,1.9-1.1,1.9c-1.7,3.2-3.1,6.6-4.4,10-1.2,3.4-2.3,6.9-3.2,10.4-3.9,16.3-3.8,33.4-1.3,49.9,15.6,100.4,119.1,224.2,212.7,262.6h0c1.6.6,4,1.5,5.6,2.1.6.2,1.2.4,1.8.6,2.6.9,5.4,1.8,8.1,2.5.7.2,1.3.4,2,.5.2,0,.5.1.7.2,3.3.8,6.5,1.5,9.6,2,7.7,1.3,15.6,1.7,23.4,1.2,2.8-.2,5.5-.5,8.2-.9,0,0,0,0,.1,0,18.4-3,35-12,50.6-22.4,10.3-7,20.2-14.6,30.5-21.6.5-.3.9-.6,1.4-.9.3-.2.6-.4.9-.6,14.8-9.9,30.7-18.3,48.5-20.9,17.4-2.7,35.2.8,51.4,7.2,32.6,13.2,59.8,36.2,86,59.2,9,7.4,18.6,14.3,29.2,19.1,23.4,11,44.9,7.7,66.6-5.2,25-14.8,47-35.2,75-44.5,15.2-5.2,31.5-6.9,47.5-4.9,5.8.7,11.5,1.8,17.2,3.3,23.9,6.6,46.9,16.4,68.2,29.1,60.6,36,105.6,92.1,145,149.5,15.1,22.1,30.7,45.9,47.9,68.7h232.9c-.5-20.6-3.9-41.2-9.8-60.9-10.9-33.2-26-65-36.3-98.4Z"/>
        <path class="st0" d="M308.3,964.4h0s0,0,0,0l-2-.8c-4.7-2-9.6-4.2-14.1-6.3-62.8-30.2-125.9-69.8-168.6-125.8-10.7-14.1-19.4-29.6-25.9-46.1,26.1,77.4,112.2,135.2,182.2,171,10.2,5.1,20.5,10.1,31,14.6l1.9.8c61.3,14.8,117.7,51.2,154.2,102.8,1.3,1.8,2.6,3.7,3.8,5.6h1.7c-36.4-57.9-97.5-99.9-164-115.6Z"/>
        <path class="st0" d="M58.4,731.6c1.1,1.5,2.2,3,3.4,4.4,0-.1-.2-.2-.3-.4-25.1-33.6-49.9-73.8-61.5-116.1v9.5c9.2,25.9,22.7,50.5,37.8,73.4,6.5,9.9,13.5,19.6,20.6,29Z"/>
        <path class="st0" d="M249.6,238c29.7,7.9,58.5,18.6,86.1,32,8.4,4,17.5,8.9,25.5,13.2,18,10.4,36.2,21.3,55.6,28.8,60.5,24.8,118.5,16.8,172.6-18.8,51.3-33.3,92.3-79.5,138.6-119.1,78.5-68.8,155.4-96.3,253.7-47.8,19,9.2,37,20.5,54.2,32.6l4.7,3.2,2.3,1.6,2.4,1.5,4.8,2.9,5,2.7,2.5,1.3,2.6,1.2c1.7.8,3.4,1.6,5.1,2.4l5.2,2.1c3.1,1.2,6.2,2.2,9.3,3.2l1.4.4,5.4,1.4c2.8.6,5.5,1.2,8.3,1.7l2.8.4c1.9.2,3.7.6,5.6.7l5.6.4h5.6c58-.3,106.7-40.3,143.4-81.7,27.5-32.3,51.2-67.3,71.9-104.2h-8.5c-20.3,35.4-43.2,68.8-69.1,98.8-24.2,27.2-52.2,52.2-85.5,67.7-13.1,6.2-27.1,10.4-41.4,12.5-10.1,1.4-20.2,1.6-30.3.5l-1.4-.2-5.7-.8c-2.8-.5-5.7-1.1-8.5-1.7-2.6-.7-5.8-1.4-8.4-2.3-5.5-1.7-10.9-3.8-16.2-6.2-7-3.2-13.8-6.9-20.3-11.1-7.9-5.2-15.9-11.1-23.9-16.1-85.9-55.4-166.1-63.3-251.2-1.6-62.8,44.6-111.3,106.7-176.3,148.5-39.3,25.5-85.3,38.9-132.1,30.1-24.7-4.3-48.3-13.7-70.3-25.5-8.3-4.4-16.9-9.8-25-14.3-104.8-59.6-228.6-78.3-344.7-43-3.7,1.1-7.4,2.3-11,3.5v8.5c79.7-27.8,167.9-31.6,249.6-9.3Z"/>
        <path class="st0" d="M56.7,428.1c100-82.2,273.4-64,393-41,46.3,9,92.1,20.3,137.5,33.2,13.2,3.7,26.4,7.8,39.7,11,21,5,42.5,7.9,64.1,8.4,29.4.8,58.9-3.4,87.2-11.1,43.7-11.7,85-30.5,127.8-45,26.1-8.9,52.8-16.1,80-20.2,66.2-10.4,134.8-.3,197.8,20.1,11,2.4,22.1,3.9,33.4,4.3,33.6,1.3,67-8.5,95.5-26.1,104.1-65.4,165.8-223.6,194.2-361.8h-172.7c-31,56.5-68.7,108.6-114.3,146.9-29.7,24.2-66,43.2-105.1,43.2h-5.8c0,0-5.8-.5-5.8-.5-1.9,0-3.9-.4-5.8-.7l-2.9-.4c-2.9-.5-5.7-1.1-8.6-1.7-1.6-.4-5.7-1.5-7-1.9-3.2-1.1-6.5-2-9.6-3.3l-5.4-2.1c-2.5-1.1-5.4-2.5-7.9-3.6-1.4-.8-6.1-3.3-7.7-4.1l-5-3-2.5-1.5-2.4-1.6c-2.5-1.6-7.1-4.8-9.5-6.5-310-216-364.7,308.3-654.7,136.1l-9.9-5.7-4.9-2.9c-3.9-2.2-10.9-5.8-15.1-8.1-16.9-8.7-34.3-16.4-52.1-23.1-93.9-35.7-197.9-38.1-292.1-5.1v254.5c4-9.4,8.8-18.7,14.4-27.9,11.2-18.6,25.6-35.1,42.3-48.8Z"/>
        <path class="st0" d="M64.2,434.4c33.6-27.3,75.3-42.9,117.5-51,61.6-11.9,125-9.8,187.1-2.9,62.1,7.2,123.5,20,184,35.6,22.7,5.8,45.2,12.3,67.7,18.7,22.4,6.3,45.5,10.1,68.7,11.4,20.3,1,40.7-.1,60.8-3.4,57.1-9.2,109.2-34.7,163.7-53,31.5-10.7,64.1-18.7,97.3-22,29.3-2.8,58.9-2.3,88.1,1.6,30.2,3.7,65.9,12.6,91.5,20.9,10.7,2.4,21.6,3.8,32.6,4.2,157.5,4.5,253.5-208.3,290.5-394.7h-6.1c-28.2,138.5-89.9,297-194.4,362.8-28.7,17.7-62.3,27.6-96.1,26.3-11.3-.4-22.5-1.8-33.5-4.3-63.4-20.4-131.2-30.4-197.4-20-27.2,4.1-53.8,11.3-79.8,20.1-42.8,14.4-84.2,33.3-127.9,44.9-28.5,7.7-58.1,11.9-87.6,11.1-21.7-.6-43.2-3.4-64.3-8.5-13.4-3.2-26.6-7.3-39.8-11-45.3-12.9-91.1-24.2-137.4-33.2-119.3-23-292.4-41.5-392.4,40.4-16.7,13.7-31,30.2-42.3,48.6-5.8,9.5-10.7,19.1-14.8,28.9v22.8c1-3.2,2.1-6.3,3.3-9.4,12.5-33,33.3-63,60.9-85.1Z"/>
        <path class="st0" d="M651.1,1012.5c-6.4,8.9-12,18.4-16.6,28.4-6,12.8-11,25.8-15.2,39.1h377.9c-22-20.8-44.9-40.5-69.7-57.8-78.2-54.5-208.5-104.8-276.3-9.7Z"/>
        <path class="st0" d="M1370.9,330.6c-38.9,41.4-89.6,70.6-147.8,68.3-11.2-.4-22.4-1.8-33.3-4.3-27.3-8.7-60.7-17-91.2-20.8-28.9-3.8-58.1-4.4-87.1-1.6-32.9,3.3-65.1,11.2-96.4,21.8-54.4,18.2-107.2,43.9-164.4,53-20.4,3.3-41.1,4.4-61.7,3.4-31.4-1.4-62.1-9-92.1-18.2-30-8.6-60.1-16.5-90.5-23.6-105.7-23.7-216.3-41.8-324.1-22.6-39.9,7.6-79.4,21.8-112,46.5-29.7,22.1-52.2,53-65.4,87.5-1.8,4.6-3.4,9.3-4.8,14v81.6c10.8,43.7,36.1,85.4,61.5,120,.1.1.2.3.3.4h0s0,0,0,0c0,0,0,0,0,0h0s0,0,0,0c-1.1-1.5-2.3-2.9-3.4-4.4-7.8-10.2-15.3-20.8-22.3-31.4-14.3-22.1-27.1-45.5-36.1-70.3v450.1h468.4c-7.1-9.9-14.9-19.4-23.4-28.2-35.9-37.6-83.1-63.9-133.6-76-.7-.3-1.7-.7-2.5-1-10.6-4.5-21-9.5-31.2-14.7-70.4-36.2-156.7-95.6-180.2-174.9h0s0,0,0,0c0,0,0,0,0,0h0s0,0,0,0c6.6,16.4,15.5,31.8,26.3,45.8,43.1,55.5,106.1,95,168.8,125,4.6,2.1,9.5,4.3,14.1,6.3l2,.8c66.9,15.9,128.3,58.3,164.3,116.8h137.6c3.4-12,7.3-23.8,12-35.3,50.8-130.4,172.5-112.5,274.2-53.2,21.4,12.5,41.7,26.7,60.8,42.5,17.5,14.6,34.2,30.1,50.6,46h151c-16.8-22.5-32.2-46.1-47.6-68.4-26.3-38.4-54.8-75.8-89-107.5-35.1-32.7-77.3-58.6-123.8-71.2-4.2-1-8.5-2-12.8-2.7-5.8-.9-11.6-1.4-17.4-1.4-45.8-.3-73.1,28.2-109.3,50.1-21.7,12.9-43.3,16.2-66.7,5.1-10.6-4.8-20.2-11.7-29.2-19.1-21.8-19.2-44.2-38.3-70.1-51.9-15.4-8.1-32.2-14.3-49.7-15.4-26.2-1.3-46.6,8.8-65.9,21.6-.3.2-.6.4-.9.6-.5.3-.9.6-1.4.9-3.9,2.6-7.7,5.4-11.5,8.1-6.2,4.5-12.5,9.1-19,13.5-15.3,10.4-31.4,19.3-50.6,22.4,0,0,0,0-.1,0-9.7,1.6-20.1,1.7-31.6-.3-3-.5-6.1-1.1-9.1-1.9-.2,0-.3,0-.5-.1-.2,0-.5-.1-.7-.2-.7-.2-1.3-.4-2-.5-2.6-.7-5.3-1.6-8.1-2.5-.4-.1-.9-.3-1.3-.4-.2,0-.3-.1-.5-.2-1.9-.7-3.7-1.4-5.6-2.1h0c-93.8-38.4-197.2-162.2-212.9-262.6-2.5-16.5-2.6-33.7,1.3-50,.9-3.5,2-7,3.2-10.5l1.6-4.1c.8-2,1.9-4,2.8-5.9l1.1-1.9,1.1-1.9c.2-.3.3-.6.5-.9l.6-.9,2.4-3.7c4.3-5.9,9.2-11.3,14.7-16.1,8.6-7.9,17.9-15,27.8-21.2,32.2-20.9,67.6-27.7,103.3-25.7,5,.3,9.9.7,14.8,1.3,28.4,3.4,56.7,11.9,83.4,22.8,65.1,25.9,124.6,63.5,188.4,92.3,21.3,9.5,43.1,17.9,65.9,23.1,182,43.8,372.9,29.9,555.1-5.8,91.4-17.8,179.6-52.9,273.1-59.7,10.7-.8,24.2-1.2,35-1.2,58.3-.2,116.8,1.9,174.4,11.5,34.5,5.8,68.8,14.3,100.6,29.1,2.6,1.3,5.3,2.5,7.9,3.9l3.9,2c.6.3,1.3.7,1.9,1l1.9,1.1,3.8,2.2c8.9,5.1,16.9,11.8,23.5,19.6,19.3,22.8,23.2,54.6,18.3,83.2-8.7,53.4-46.5,114.9-93.8,142.4-50.5,29.5-114.1,34.7-169.6,17.1-64.9-19.5-145.8-73.2-212-33.7-.8.6-2,1.3-2.7,1.9-.4.3-2.1,1.7-2.5,2-1,.9-2.3,2-3.1,3-19.3,20.2-16.8,50.9-12,76.4,8.1,40.1,25.1,77.6,39.4,115.6,9.6,24.8,14.8,51.1,15.4,77.7h117.9c2.8-10.6,6.3-21,10.4-31.1,18.1-44.3,49.6-81.9,90.1-107.3,14.8-9.1,31.7-17,49.5-16.4h0c-18.5-.4-35.7,8.2-50.9,17.9-39.4,25.7-69.9,62.7-87.6,106.3-4,10-7.3,20.2-10.1,30.7h7.3c10.8-40.6,31.3-78.2,61.6-107.8,11.2-11,23.5-20.8,36.7-29.3,8.7-5.7,18.1-10.5,27.9-14,4.9-1.7,10-3,15.2-3.7-12.8,2.3-24.7,8.1-35.7,14.8-41.8,26.5-74,65.6-92,111.7-3.6,9.2-6.7,18.7-9.2,28.3h395.6V0h-403.3c-22.9,119.7-69.1,247.7-145.8,330.6Z"/>
        <path class="st0" d="M356.3,277.3c8,4.6,17,9.9,25,14.3,21.9,11.8,45.4,21.1,70,25.4,46.5,8.7,92.1-4.6,131.2-30,64.9-41.8,113.4-103.9,176.2-148.5,85.7-62,166.3-54,252.6,1.6,8,5,16.1,10.9,23.9,16.1,6.4,4.1,13.2,7.8,20.2,11,5.2,2.4,10.6,4.5,16.1,6.2,2.8.9,5.6,1.5,8.3,2.3,2.8.6,5.6,1.2,8.4,1.7l5.7.8,1.4.2c10,1,20.1.8,30.1-.5,14.2-2.1,28.1-6.3,41.1-12.4,17.4-8,33.5-18.9,48.1-31.2,13.2-11.1,25.6-23.2,37-36.2,25.7-29.8,48.5-63,68.8-98.1H275.1c5,47,16.5,93,36.8,135.7,5.7,11.5,12.2,22.6,19.6,33.1,0,0,0,0,0,0,0,0,0,0,0,0,0,0,0,0,0,0h0s0,0,0,0c-35.7-45.5-54.6-106.9-62.3-168.8H0v237.9c3.6-1.2,7.1-2.3,10.7-3.4,116.5-35.5,240.4-16.8,345.5,42.9Z"/>
        <path class="st0" d="M896.2,992.5c-101-58.8-222.1-77.1-272.5,52.7-4.6,11.4-8.5,23-11.9,34.8h3.3c7.7-24.9,18.1-48.6,32.7-69.9,49.3-69.5,132.9-64.3,203.9-34.3,41.2,17.3,79.5,41.3,113.6,70.2,12.9,11,25.4,22.4,37.6,34.1h3.9c-12.6-12.1-25.4-24-38.6-35.6-22.2-19.6-46.3-37-71.9-51.9Z"/>
        <path class="st0" d="M311.7,135.8c-20.7-42.7-32.5-88.8-37.7-135.8h-4.5c7.6,61.9,26.4,123.3,62,168.8-7.4-10.5-14.1-21.5-19.8-32.9Z"/>
        <path class="st5" d="M331.5,168.8c-35.6-45.5-54.4-106.9-62-168.8h-.3c7.7,61.9,26.6,123.3,62.3,168.8,0,0,0,0,0,0Z"/>
        <path class="st5" d="M331.6,168.9s0,0,0,0c0,0,0,0,0,0,0,0,0,0,0,0Z"/>
        <path class="st5" d="M331.5,168.8s0,0,0,0c0,0,0,0,0,0h0s0,0,0,0c0,0,0,0,0,0-7.4-10.5-13.9-21.6-19.6-33.1-20.3-42.7-31.9-88.7-36.8-135.7h-1.1c5.2,47.1,17,93.1,37.7,135.8,5.7,11.5,12.4,22.5,19.8,32.9Z"/>
        <path class="st5" d="M312.5,971.6l-1.9-.8c-10.5-4.5-20.8-9.4-31-14.6-69.9-35.8-156.1-93.6-182.2-171,0,0,0,0,0,0h0c23.5,79.3,109.8,138.7,180.2,174.9,10.2,5.2,20.7,10.2,31.2,14.7.7.3,1.7.7,2.5,1,50.5,12.1,97.6,38.4,133.6,76,8.5,8.8,16.3,18.2,23.4,28.2h2.2c-1.3-1.9-2.5-3.7-3.8-5.6-36.6-51.7-92.9-88-154.2-102.8Z"/>
        <path class="st5" d="M97.4,785.2h0s0,0,0,0c0,0,0,0,0,0Z"/>
        <path class="st5" d="M308.6,963.2l-2-.8c-4.6-2-9.5-4.2-14.1-6.3-62.7-30-125.7-69.5-168.8-125-10.8-14-19.7-29.4-26.3-45.8,0,0,0,0,0,0,0,0,0,0,0,0,0,0,0,0,0,0,0,0,0,0,0,0,6.5,16.5,15.2,32,25.9,46.1,42.8,56,105.8,95.6,168.6,125.8,4.6,2.1,9.5,4.3,14.1,6.3l2,.8h0s0,0,0,0c66.5,15.7,127.7,57.7,164,115.6h.6c-36-58.5-97.4-100.9-164.3-116.8Z"/>
        <path class="st5" d="M355.7,278.3c8.1,4.6,16.8,9.9,25,14.3,22,11.8,45.6,21.2,70.3,25.5,46.8,8.8,92.8-4.6,132.1-30.1,65-41.8,113.5-103.9,176.3-148.5,85.2-61.7,165.3-53.8,251.2,1.6,8,5.1,16,10.9,23.9,16.1,6.5,4.2,13.3,7.9,20.3,11.1,5.3,2.4,10.7,4.5,16.2,6.2,2.6.9,5.7,1.6,8.4,2.3,2.8.7,5.7,1.2,8.5,1.7l5.7.8,1.4.2c10.1,1,20.3.8,30.3-.5,14.3-2.1,28.3-6.4,41.4-12.5,33.2-15.5,61.3-40.5,85.5-67.7,25.9-30,48.8-63.4,69.1-98.8h-1.2c-20.3,35.2-43,68.3-68.8,98.1-11.4,13-23.8,25.1-37,36.2-14.7,12.3-30.7,23.2-48.1,31.2-13,6.1-26.9,10.3-41.1,12.4-10,1.4-20.1,1.5-30.1.5l-1.4-.2-5.7-.8c-2.8-.5-5.7-1.1-8.4-1.7-2.7-.8-5.5-1.4-8.3-2.3-5.5-1.7-10.9-3.8-16.1-6.2-7-3.2-13.7-6.9-20.2-11-7.8-5.2-15.9-11.1-23.9-16.1-86.3-55.7-166.9-63.7-252.6-1.6-62.8,44.6-111.2,106.7-176.2,148.5-39.1,25.4-84.7,38.7-131.2,30-24.6-4.3-48.1-13.6-70-25.4-8-4.4-17-9.7-25-14.3-105.2-59.7-229-78.4-345.5-42.9-3.6,1.1-7.2,2.3-10.7,3.4v.9c3.6-1.2,7.3-2.4,11-3.5,116.2-35.3,239.9-16.6,344.7,43Z"/>
        <path class="st5" d="M292.1,255.5c17.8,6.7,35.2,14.4,52.1,23.1,4.2,2.2,11.2,5.9,15.1,8.1l4.9,2.9,9.9,5.7c290,172.3,344.7-352.1,654.7-136.1,2.4,1.7,7,4.9,9.5,6.5l2.4,1.6,2.5,1.5,5,3c1.6.8,6.2,3.3,7.7,4.1,2.5,1.2,5.4,2.5,7.9,3.6l5.4,2.1c3.1,1.2,6.4,2.2,9.6,3.3,1.3.3,5.5,1.4,7,1.9,2.8.6,5.7,1.2,8.6,1.7l2.9.4c1.9.2,3.8.6,5.8.7l5.8.4h5.8c39.1.1,75.5-18.9,105.1-43.1,45.6-38.3,83.3-90.4,114.3-146.9h-4.1c-20.7,36.8-44.4,71.9-71.9,104.2-36.7,41.4-85.4,81.4-143.4,81.8h-5.6c0,0-5.6-.5-5.6-.5-1.9,0-3.7-.4-5.6-.7l-2.8-.4c-2.8-.5-5.5-1.1-8.3-1.7l-5.4-1.4-1.4-.4c-3.1-1-6.3-2-9.3-3.2l-5.2-2.1c-1.7-.8-3.4-1.6-5.1-2.4l-2.6-1.2-2.5-1.3-5-2.7-4.8-2.9-2.4-1.5-2.3-1.6-4.7-3.2c-17.2-12.2-35.2-23.4-54.2-32.6-98.3-48.5-175.2-21.1-253.7,47.8-46.3,39.6-87.3,85.8-138.6,119.1-54,35.6-112.1,43.6-172.6,18.8-19.5-7.5-37.6-18.4-55.6-28.8-8-4.3-17.2-9.2-25.5-13.2-27.6-13.4-56.4-24.2-86.1-32-81.7-22.3-169.9-18.5-249.6,9.3v3.1c94.2-33,198.3-30.6,292.1,5.1Z"/>
        <path class="st5" d="M394.2,864.8s0,0-.1,0c0,0,0,0,.1,0Z"/>
        <path class="st5" d="M353.4,862.6c3,.8,6,1.4,9.1,1.9-3.1-.5-6.3-1.2-9.6-2,.2,0,.3,0,.5.1Z"/>
        <path class="st5" d="M352.2,862.3c-.6-.2-1.3-.4-2-.5.7.2,1.3.4,2,.5Z"/>
        <path class="st5" d="M353,862.5c-.2,0-.5-.1-.7-.2.2,0,.5.1.7.2Z"/>
        <path class="st5" d="M463.8,828.9c3.8-2.7,7.6-5.4,11.5-8.1-10.2,7-20.2,14.6-30.5,21.6,6.5-4.3,12.8-8.9,19-13.5Z"/>
        <path class="st5" d="M477.6,819.3c-.3.2-.6.4-.9.6.3-.2.6-.4.9-.6Z"/>
        <path class="st5" d="M444.8,842.4c-15.6,10.4-32.2,19.4-50.6,22.4,19.2-3.1,35.3-12.1,50.6-22.4Z"/>
        <path class="st5" d="M476.7,819.9c-.5.3-.9.6-1.4.9.5-.3.9-.6,1.4-.9Z"/>
        <path class="st5" d="M350.3,861.8c-2.7-.8-5.4-1.6-8.1-2.5,2.7.9,5.4,1.8,8.1,2.5Z"/>
        <path class="st5" d="M362.5,864.5c11.5,1.9,21.9,1.9,31.6.3-2.7.4-5.4.8-8.2.9-7.8.5-15.7,0-23.4-1.2Z"/>
        <path class="st5" d="M334.8,856.5h0c1.9.8,3.8,1.5,5.6,2.1-1.6-.6-4-1.5-5.6-2.1h0Z"/>
        <path class="st5" d="M340.9,858.8c.4.1.9.3,1.3.4-.6-.2-1.2-.4-1.8-.6.2,0,.3.1.5.2Z"/>
        <path class="st5" d="M122,593.9c-2.5-16.5-2.6-33.6,1.3-49.9.9-3.5,2-7,3.2-10.4,1.3-3.4,2.8-6.7,4.4-10l1.1-1.9,1.1-1.9c.2-.3.3-.6.5-.9l.6-.9,2.4-3.7c4.3-5.9,9.2-11.3,14.7-16.1,8.6-7.9,17.9-15,27.7-21.2,30.6-19.9,67.1-27.7,103.2-25.8-35.7-2-71.1,4.8-103.3,25.7-9.9,6.3-19.1,13.4-27.8,21.2-5.5,4.8-10.5,10.2-14.7,16.1l-2.4,3.7-.6.9c-.2.3-.4.6-.5.9l-1.1,1.9-1.1,1.9c-.9,1.9-2,4-2.8,5.9l-1.6,4.1c-1.2,3.4-2.3,6.9-3.2,10.5-3.9,16.3-3.8,33.4-1.3,50,15.6,100.4,119,224.2,212.9,262.6-93.7-38.4-197.2-162.2-212.7-262.6Z"/>
        <path class="st5" d="M966.9,861.8c-21.3-12.7-44.2-22.5-68.2-29.1-5.7-1.5-11.4-2.5-17.2-3.3-16-2-32.2-.4-47.5,4.9-28,9.3-50,29.7-75,44.5-21.7,12.9-43.2,16.2-66.6,5.2-10.6-4.8-20.2-11.7-29.2-19.1-26.2-23-53.4-46-86-59.2-16.2-6.4-34-9.9-51.4-7.2-17.8,2.6-33.6,11-48.5,20.9,19.3-12.8,39.7-22.9,65.9-21.6,17.5,1.1,34.3,7.2,49.7,15.4,25.9,13.6,48.3,32.6,70.1,51.9,8.9,7.4,18.6,14.3,29.2,19.1,23.4,11,45,7.7,66.7-5.1,36.1-21.9,63.5-50.4,109.3-50.1,5.8,0,11.6.5,17.4,1.4,4.3.6,8.6,1.6,12.8,2.7,46.5,12.6,88.7,38.5,123.8,71.2,34.3,31.7,62.7,69.1,89,107.5,15.3,22.3,30.8,46,47.6,68.4h.7c-17.2-22.7-32.8-46.6-47.9-68.7-39.4-57.4-84.4-113.5-145-149.5Z"/>
        <path class="st5" d="M1338.6,886.7c-4.8-25.4-7.3-56.2,12-76.4.9-1,2.2-2.1,3.1-3,.5-.4,2.1-1.7,2.5-2,.7-.5,1.9-1.3,2.7-1.9,66.2-39.5,147.1,14.3,212,33.7,55.5,17.6,119,12.4,169.6-17.1,47.3-27.5,85-89,93.8-142.4,4.8-28.6.9-60.5-18.3-83.2-6.6-7.9-14.6-14.5-23.5-19.6l-3.8-2.2-1.9-1.1c-.6-.4-1.3-.7-1.9-1l-3.9-2c-2.6-1.4-5.2-2.6-7.9-3.9-31.8-14.8-66.2-23.3-100.6-29.1-57.6-9.6-116.1-11.7-174.4-11.5-10.8,0-24.3.4-35,1.2-93.5,6.8-181.6,41.9-273.1,59.7-182.2,35.8-373.1,49.6-555.1,5.8-22.7-5.2-44.6-13.6-65.9-23.1-63.8-28.8-123.3-66.4-188.4-92.3-26.7-10.9-55-19.4-83.4-22.8,5.5.7,11.1,1.6,16.5,2.7,68.9,13.9,130.6,49.7,192.4,81.7,41.3,21.3,83.1,43.5,128.6,54.2,182.1,43.9,373.1,30.3,555.4-5.4,68.7-13.3,135.1-36.3,203.8-49.9,31.4-6.2,63.3-10.4,95.3-10.7,72.7-.5,146.1,1.9,217.2,18.3,28.2,6.8,56.2,15.9,81.6,30.2,5.1,2.8,10,6,14.5,9.5,58.8,47.6,27,138.2-11.7,189-41.9,59-115.9,81.4-185.6,71.8-58-8.8-108.5-42.9-166.1-53.2-27.1-5-56.9-3.1-80.7,11.8l-1.8,1.3c-.3.2-.6.4-.9.6l-.9.7-1.7,1.4-1.6,1.5-.8.8-.8.8-1.5,1.6c-24.7,28.5-11.7,77.1-1.8,109.5,10.3,33.4,25.5,65.2,36.3,98.4,5.9,19.7,9.3,40.3,9.8,60.9h.8c-.6-26.6-5.8-52.9-15.4-77.7-14.3-38.1-31.3-75.6-39.4-115.6Z"/>
        <path class="st5" d="M282.4,451.1c4.9.3,9.9.7,14.8,1.3-4.9-.6-9.9-1.1-14.8-1.3Z"/>
        <path class="st5" d="M61.8,736.1h0c-.1-.1-.2-.3-.3-.4,0,.1.2.2.3.4,0,0,0,0,0,0Z"/>
        <path class="st5" d="M61.8,736.1h0s0,0,0,0c0,0,0,0,0,0Z"/>
        <path class="st5" d="M0,615.7v4c11.5,42.3,36.4,82.4,61.5,116.1-25.4-34.6-50.7-76.4-61.5-120Z"/>
        <path class="st5" d="M70.2,432.6c32.6-24.7,72.1-38.9,112-46.5,107.9-19.2,218.4-1.1,324.1,22.6,30.4,7,60.5,15,90.5,23.6,30,9.2,60.7,16.7,92.1,18.2,20.6,1.1,41.3,0,61.7-3.4,57.2-9.1,110-34.8,164.4-53,31.2-10.6,63.5-18.5,96.4-21.8,29-2.8,58.2-2.3,87.1,1.6,30.4,3.8,63.9,12.1,91.2,20.8,11,2.4,22.1,3.8,33.3,4.3,58.2,2.3,108.9-26.9,147.8-68.3,76.7-83,122.9-210.9,145.8-330.6h-3c-37.1,186.4-133.1,399.2-290.5,394.7-11-.4-21.9-1.8-32.6-4.2-25.6-8.3-61.3-17.2-91.5-20.9-29.2-3.9-58.8-4.4-88.1-1.6-33.2,3.3-65.8,11.3-97.3,22-54.5,18.3-106.6,43.8-163.7,53-20.1,3.3-40.5,4.4-60.8,3.4-23.3-1.3-46.3-5.1-68.7-11.4-22.5-6.4-45.1-12.9-67.7-18.7-60.5-15.7-121.9-28.4-184-35.6-62.1-6.9-125.4-9-187.1,2.9-42.2,8.2-83.8,23.8-117.5,51-27.6,22.1-48.4,52.1-60.9,85.1-1.2,3.1-2.3,6.2-3.3,9.4v5.2c1.4-4.7,3-9.4,4.8-14,13.2-34.4,35.8-65.4,65.4-87.5Z"/>
        <path class="st5" d="M58.4,731.6c1.1,1.5,2.2,3,3.4,4.4,0,0,0,0,0,0,0,0,0,0,0,0,0,0,0,0,0,0,0,0,0,0,0,0-1.1-1.5-2.3-2.9-3.4-4.4Z"/>
        <path class="st5" d="M57.1,428.6c99.9-82,273.1-63.5,392.4-40.4,46.3,9,92.1,20.4,137.4,33.2,13.2,3.7,26.4,7.9,39.8,11,21.1,5.1,42.6,7.9,64.3,8.5,29.5.8,59.1-3.4,87.6-11.1,43.7-11.6,85.1-30.5,127.9-44.9,26-8.8,52.6-16,79.8-20.1,66.2-10.4,134-.4,197.4,20,11,2.4,22.2,3.9,33.5,4.3,33.8,1.3,67.4-8.6,96.1-26.3,104.6-65.7,166.2-224.2,194.4-362.8h-.8c-28.4,138.2-90,296.4-194.2,361.8-28.5,17.6-61.9,27.4-95.5,26.1-11.2-.4-22.4-1.8-33.4-4.3-63-20.4-131.5-30.5-197.8-20.1-27.3,4.1-54,11.3-80,20.2-42.8,14.4-84.1,33.3-127.8,45-28.4,7.6-57.8,11.9-87.2,11.1-21.6-.6-43.1-3.4-64.1-8.4-13.4-3.2-26.5-7.3-39.7-11-45.4-12.9-91.2-24.2-137.5-33.2-119.5-23-292.9-41.2-393,41-16.8,13.8-31.1,30.3-42.3,48.8-5.6,9.2-10.4,18.5-14.4,27.9v1.2c4.1-9.8,9.1-19.4,14.8-28.9,11.3-18.5,25.5-34.9,42.3-48.6Z"/>
        <path class="st5" d="M58.4,731.6c-7.2-9.4-14.1-19.1-20.6-29-15.1-23-28.5-47.5-37.8-73.4v.7c9,24.8,21.8,48.2,36.1,70.3,7,10.7,14.5,21.3,22.3,31.4Z"/>
        <path class="st5" d="M1610.3,943.1c15.2-9.7,32.4-18.3,50.9-17.9h0c-17.8-.6-34.6,7.2-49.5,16.4-40.5,25.5-72.1,63-90.1,107.3-4.1,10.1-7.5,20.5-10.4,31.1h1.3c2.8-10.4,6.2-20.7,10.1-30.7,17.7-43.5,48.3-80.6,87.6-106.3Z"/>
        <path class="st5" d="M1625.6,940c11-6.7,22.9-12.5,35.7-14.8-5.2.7-10.2,1.9-15.2,3.7-9.8,3.6-19.2,8.3-27.9,14-13.2,8.5-25.5,18.3-36.7,29.3-30.3,29.6-50.7,67.3-61.6,107.8h4.5c2.5-9.6,5.6-19,9.2-28.3,18-46.1,50.2-85.2,92-111.7Z"/>
        <path class="st5" d="M896.7,991.5c-101.7-59.3-223.4-77.2-274.2,53.2-4.7,11.6-8.6,23.4-12,35.3h1.3c3.4-11.8,7.3-23.4,11.9-34.8,50.4-129.8,171.5-111.5,272.5-52.7,25.6,14.9,49.7,32.3,71.9,51.9,13.1,11.6,26,23.4,38.6,35.6h1.4c-16.3-15.9-33.1-31.4-50.6-46-19.1-15.8-39.4-30-60.8-42.5Z"/>
        <path class="st5" d="M851.6,975.8c-71-30-154.6-35.1-203.9,34.3-14.7,21.3-25,45-32.7,69.9h4.2c4.2-13.3,9.2-26.3,15.2-39.1,4.7-10,10.2-19.5,16.6-28.4,67.8-95.1,198.1-44.7,276.3,9.7,24.9,17.2,47.8,37,69.7,57.8h5.6c-12.2-11.7-24.7-23.1-37.6-34.1-34.1-28.9-72.3-52.9-113.6-70.2Z"/>
      </g>
    </g>
  </g>
</svg>